<svg width="12" height="14" viewBox="0 0 12 14" fill="none" xmlns="http://www.w3.org/2000/svg">
<path d="M9.99987 1.98669C8.939 0.925822 7.50016 0.329834 5.99987 0.329834C4.49958 0.329834 3.06074 0.925822 1.99987 1.98669C0.939006 3.04755 0.343018 4.4864 0.343018 5.98669C0.343018 7.48698 0.939006 8.92582 1.99987 9.98669L5.51321 13.5067C5.57518 13.5692 5.64891 13.6188 5.73015 13.6526C5.81139 13.6865 5.89853 13.7039 5.98654 13.7039C6.07455 13.7039 6.16168 13.6865 6.24292 13.6526C6.32416 13.6188 6.3979 13.5692 6.45987 13.5067L9.99987 9.95335C11.0563 8.8969 11.6498 7.46406 11.6498 5.97002C11.6498 4.47599 11.0563 3.04314 9.99987 1.98669ZM9.04654 9.00002L5.99987 12.06L2.9532 9.00002C2.3513 8.39757 1.94152 7.63019 1.77567 6.79488C1.60981 5.95958 1.69533 5.09385 2.02141 4.30714C2.34749 3.52043 2.89948 2.84805 3.60763 2.37501C4.31577 1.90196 5.14826 1.64948 5.99987 1.64948C6.85148 1.64948 7.68398 1.90196 8.39212 2.37501C9.10026 2.84805 9.65226 3.52043 9.97833 4.30714C10.3044 5.09385 10.3899 5.95958 10.2241 6.79488C10.0582 7.63019 9.64844 8.39757 9.04654 9.00002ZM3.99987 3.94002C3.46168 4.47987 3.15947 5.21107 3.15947 5.97335C3.15947 6.73564 3.46168 7.46684 3.99987 8.00669C4.39971 8.40721 4.90893 8.68074 5.46364 8.79296C6.01835 8.90517 6.59384 8.85108 7.11792 8.63746C7.642 8.42384 8.09133 8.06021 8.40952 7.59219C8.72772 7.12417 8.90063 6.5726 8.90654 6.00669C8.90954 5.62882 8.83675 5.25419 8.69247 4.90495C8.54819 4.5557 8.33535 4.23893 8.06654 3.97335C7.80232 3.70307 7.48726 3.48771 7.13949 3.33967C6.79171 3.19162 6.4181 3.11381 6.04014 3.11071C5.66218 3.10761 5.28734 3.17929 4.93719 3.32161C4.58703 3.46394 4.26849 3.67411 3.99987 3.94002ZM7.12654 7.06002C6.8739 7.31652 6.54001 7.47729 6.18196 7.51486C5.8239 7.55242 5.46391 7.46445 5.16354 7.26597C4.86317 7.0675 4.64107 6.77085 4.53521 6.42674C4.42935 6.08264 4.4463 5.71245 4.58318 5.37946C4.72005 5.04647 4.96834 4.77137 5.28559 4.60118C5.60285 4.43099 5.96937 4.37629 6.3225 4.44643C6.67562 4.51657 6.99341 4.70719 7.22154 4.98571C7.44968 5.26422 7.57398 5.61333 7.5732 5.97335C7.56351 6.38487 7.39087 6.77571 7.0932 7.06002H7.12654Z" fill="#88889D"/>
</svg>
