<svg width="21" height="21" viewBox="0 0 21 21" fill="none" xmlns="http://www.w3.org/2000/svg">
<mask id="mask0_2410_177" style="mask-type:luminance" maskUnits="userSpaceOnUse" x="0" y="4" width="21" height="17">
<path fill-rule="evenodd" clip-rule="evenodd" d="M0.5 4.5401H20.0859V20.7217H0.5V4.5401Z" fill="white"/>
</mask>
<g mask="url(#mask0_2410_177)">
<path fill-rule="evenodd" clip-rule="evenodd" d="M5.21547 6.0401C4.77447 6.0401 3.30047 6.2181 2.87747 8.5021L2.10547 14.5021C1.85447 16.1851 2.04847 17.4031 2.68347 18.1401C3.31047 18.8681 4.43247 19.2221 6.11247 19.2221H14.4605C15.5085 19.2221 16.9395 19.0131 17.8035 18.0151C18.4895 17.2241 18.7255 16.0461 18.5055 14.5131L17.7265 8.4611C17.3945 6.9701 16.5185 6.0401 15.3945 6.0401H5.21547ZM14.4605 20.7221H6.11247C3.96947 20.7221 2.47647 20.1971 1.54747 19.1181C0.61447 18.0361 0.30247 16.4131 0.62047 14.2951L1.39647 8.2691C1.90647 5.5061 3.77147 4.5401 5.21547 4.5401H15.3945C16.8445 4.5401 18.6075 5.5031 19.2025 8.2041L19.9915 14.3111C20.2745 16.2821 19.9205 17.8631 18.9375 18.9971C17.9595 20.1251 16.4115 20.7221 14.4605 20.7221Z" fill="#A2A2A2"/>
</g>
<path fill-rule="evenodd" clip-rule="evenodd" d="M14.5978 5.82031C14.1838 5.82031 13.8478 5.48431 13.8478 5.07031C13.8478 3.10131 12.2458 1.50031 10.2778 1.50031H10.2628C9.32178 1.50031 8.40478 1.87931 7.73978 2.54031C7.07178 3.20531 6.68878 4.12831 6.68878 5.07031C6.68878 5.48431 6.35278 5.82031 5.93878 5.82031C5.52478 5.82031 5.18878 5.48431 5.18878 5.07031C5.18878 3.73131 5.73278 2.42231 6.68078 1.47731C7.62578 0.538305 8.92878 0.000305176 10.2598 0.000305176H10.2808C13.0738 0.000305176 15.3478 2.27431 15.3478 5.07031C15.3478 5.48431 15.0118 5.82031 14.5978 5.82031Z" fill="#A2A2A2"/>
<path fill-rule="evenodd" clip-rule="evenodd" d="M13.2433 10.3242H13.1973C12.7833 10.3242 12.4473 9.98822 12.4473 9.57422C12.4473 9.16022 12.7833 8.82422 13.1973 8.82422C13.6113 8.82422 13.9703 9.16022 13.9703 9.57422C13.9703 9.98822 13.6573 10.3242 13.2433 10.3242Z" fill="#A2A2A2"/>
<path fill-rule="evenodd" clip-rule="evenodd" d="M7.41219 10.3242H7.36719C6.95319 10.3242 6.61719 9.98822 6.61719 9.57422C6.61719 9.16022 6.95319 8.82422 7.36719 8.82422C7.78119 8.82422 8.14019 9.16022 8.14019 9.57422C8.14019 9.98822 7.82619 10.3242 7.41219 10.3242Z" fill="#A2A2A2"/>
</svg>
